<?xml version="1.0" encoding="UTF-8" standalone="no"?>
<svg
   xmlns:dc="http://purl.org/dc/elements/1.1/"
   xmlns:cc="http://creativecommons.org/ns#"
   xmlns:rdf="http://www.w3.org/1999/02/22-rdf-syntax-ns#"
   xmlns:svg="http://www.w3.org/2000/svg"
   xmlns="http://www.w3.org/2000/svg"
   xmlns:sodipodi="http://sodipodi.sourceforge.net/DTD/sodipodi-0.dtd"
   xmlns:inkscape="http://www.inkscape.org/namespaces/inkscape"
   width="90mm"
   height="90mm"
   viewBox="0 0 90 90"
   version="1.1"
   id="svg8"
   inkscape:version="1.0.2 (e86c870879, 2021-01-15, custom)"
   sodipodi:docname="logo.svg">
  <defs
     id="defs2" />
  <sodipodi:namedview
     id="base"
     pagecolor="#ffffff"
     bordercolor="#666666"
     borderopacity="1.0"
     inkscape:pageopacity="0.0"
     inkscape:pageshadow="2"
     inkscape:zoom="2.3152571"
     inkscape:cx="198.1983"
     inkscape:cy="179.03749"
     inkscape:document-units="mm"
     inkscape:current-layer="layer1"
     inkscape:document-rotation="0"
     showgrid="true"
     inkscape:window-width="1920"
     inkscape:window-height="1027"
     inkscape:window-x="-8"
     inkscape:window-y="-8"
     inkscape:window-maximized="1"
     inkscape:snap-page="true">
    <sodipodi:guide
       position="54.239585,87.354169"
       orientation="0,793.70079"
       id="guide967" />
    <sodipodi:guide
       position="210,297"
       orientation="1122.5197,0"
       id="guide969" />
    <sodipodi:guide
       position="210,0"
       orientation="0,-793.70079"
       id="guide971" />
    <sodipodi:guide
       position="-54.572259,97.000002"
       orientation="-1122.5197,0"
       id="guide973" />
    <inkscape:grid
       type="xygrid"
       id="grid999" />
  </sodipodi:namedview>
  <metadata
     id="metadata5">
    <rdf:RDF>
      <cc:Work
         rdf:about="">
        <dc:format>image/svg+xml</dc:format>
        <dc:type
           rdf:resource="http://purl.org/dc/dcmitype/StillImage" />
        <dc:title />
      </cc:Work>
    </rdf:RDF>
  </metadata>
  <g
     inkscape:label="Layer 1"
     inkscape:groupmode="layer"
     id="layer1">
    <g
       id="g84"
       transform="matrix(0.26458333,0,0,0.26458333,-66.923707,-69.902962)">
      <g
         id="g51">
        <g
           id="g47" />
      </g>
    </g>
    <path
       style="fill:#a0a0a0;stroke:none;stroke-width:0.201207"
       d=""
       id="path921"
       transform="scale(0.26458333)" />
    <path
       style="fill:#a0a0a0;stroke:none;stroke-width:0.201207"
       d=""
       id="path927"
       transform="scale(0.26458333)" />
    <path
       style="fill:#a0a0a0;stroke:none;stroke-width:0.201207"
       d=""
       id="path931"
       transform="scale(0.26458333)" />
    <path
       style="fill:#a0a0a0;stroke:none;stroke-width:0.201207"
       d=""
       id="path933"
       transform="scale(0.26458333)" />
    <path
       style="fill:#a0a0a0;stroke:none;stroke-width:0.201207"
       d=""
       id="path935"
       transform="scale(0.26458333)" />
    <path
       style="fill:#a0a0a0;stroke:none;stroke-width:0.201207"
       d=""
       id="path937"
       transform="scale(0.26458333)" />
    <path
       style="fill:#a0a0a0;stroke:none;stroke-width:0.201207"
       d=""
       id="path939"
       transform="scale(0.26458333)" />
    <path
       style="fill:#a0a0a0;stroke:none;stroke-width:0.201207"
       d=""
       id="path943"
       transform="scale(0.26458333)" />
    <path
       style="fill:#a0a0a0;stroke:none;stroke-width:0.201207"
       d=""
       id="path947"
       transform="scale(0.26458333)" />
    <path
       style="fill:#a0a0a0;stroke:none;stroke-width:0.201207"
       d=""
       id="path949"
       transform="scale(0.26458333)" />
    <g
       id="g1219"
       transform="matrix(1.6,0,0,1.6153834,-15.610417,14.145065)">
      <g
         id="g1047">
        <path
           id="path1041"
           style="fill:#fc007a;fill-opacity:1;stroke-width:0.999999"
           d="m 115,25 a 74.999999,74.999999 0 0 0 -75,75 74.999999,74.999999 0 0 0 75,75 74.999999,74.999999 0 0 0 75,-75 74.999999,74.999999 0 0 0 -75,-75 z m -0.0527,25 A 49.999993,49.999993 0 0 1 115,50 h 50 V 99.947266 A 49.999993,49.999993 0 0 1 165,100 49.999993,49.999993 0 0 1 115,150 49.999993,49.999993 0 0 1 65,100 49.999993,49.999993 0 0 1 114.94727,50 Z"
           transform="scale(0.26458333)" />
        <path
           id="rect1043"
           style="fill:#fc007a;fill-opacity:1;stroke-width:0.999999"
           d="m 115,25 v 25 h 50 v 50 h 25 V 25 Z"
           transform="scale(0.26458333)" />
      </g>
      <circle
         style="fill:#fc007a;fill-opacity:1;stroke-width:0.264583"
         id="path1168"
         sodipodi:type="arc"
         sodipodi:cx="30.427082"
         sodipodi:cy="26.458332"
         sodipodi:rx="9.260417"
         sodipodi:ry="9.260417"
         sodipodi:start="4.8356382e-05"
         sodipodi:end="6.3804656e-06"
         sodipodi:arc-type="slice"
         d="m 39.687499,26.45878 a 9.260417,9.260417 0 0 1 -9.260768,9.259969 9.260417,9.260417 0 0 1 -9.260066,-9.26067 9.260417,9.260417 0 0 1 9.260573,-9.260164 9.260417,9.260417 0 0 1 9.260261,9.260476 l -9.260417,-5.9e-5 z" />
      <rect
         style="fill:#fc007a;fill-opacity:1;stroke-width:0.264583"
         id="rect1170"
         width="9.2604179"
         height="9.260417"
         x="30.427082"
         y="17.197916" />
    </g>
    <path
       id="path1206"
       style="fill:#2d27ff;fill-opacity:1;stroke-width:0.425363"
       d="M 73.181269,1.3229591 A 14.816667,14.959124 0 0 0 58.472915,16.282081 14.816667,14.959124 0 0 0 58.625875,18.4191 h 12.547037 v 12.668507 a 14.816667,14.959124 0 0 0 2.116667,0.15359 14.816667,14.959124 0 0 0 14.816668,-14.959124 14.816667,14.959124 0 0 0 -14.816668,-14.9591219 14.816667,14.959124 0 0 0 -0.10832,0 z" />
    <path
       style="fill:#2d27ff;fill-opacity:1;stroke:none;stroke-width:0.298395"
       d="m 71.192626,24.70897 v -6.296359 h -6.236394 -6.236395 v -2.194277 c 0,-5.349955 3.019036,-10.4376221 7.642979,-12.8799145 2.654109,-1.4018573 4.091635,-1.7570715 7.065645,-1.7459283 5.739286,0.021507 10.580395,3.2060015 13.137214,8.6417018 0.976117,2.07519 1.105874,2.634704 1.208346,5.210532 0.171822,4.318984 -0.921664,7.576487 -3.555501,10.59188 -2.707457,3.09967 -6.781262,4.968719 -10.829891,4.968719 h -2.196003 z"
       id="path1221" />
    <path
       style="fill:#2d27ff;fill-opacity:1;stroke:none;stroke-width:0.298395"
       d="m 71.192626,24.70897 v -6.296359 h -6.236394 -6.236395 l 0.0091,-0.824521 c 0.0527,-4.73885 1.782326,-9.1031594 4.681774,-11.8133439 4.461488,-4.1702688 10.641927,-5.18859687 16.051213,-2.6447007 2.541138,1.1950561 5.507045,4.2261293 6.886037,7.0373406 0.949299,1.935236 1.037374,2.350578 1.130258,5.330021 0.12664,4.062491 -0.524853,6.502802 -2.435725,9.123495 -3.008528,4.12609 -7.477752,6.312192 -13.033269,6.375164 l -0.816669,0.0092 z"
       id="path1223" />
    <path
       style="fill:#2d27ff;fill-opacity:1;stroke:none;stroke-width:0.298395"
       d="m 71.192626,24.70897 v -6.296359 h -6.236394 -6.236395 l 0.0059,-0.974434 c 0.02726,-4.514449 1.825088,-8.9901403 4.685064,-11.6634309 4.476102,-4.1839283 10.624209,-5.19692954 16.051213,-2.6447007 2.542133,1.1955233 5.507497,4.2264357 6.885147,7.0373406 0.939262,1.916434 1.037654,2.37079 1.132434,5.229475 0.126304,3.809528 -0.421052,6.159156 -2.014765,8.648646 -2.782418,4.346335 -7.69756,6.885291 -13.455516,6.950559 l -0.816668,0.0092 z"
       id="path1225" />
    <path
       style="fill:#2d27ff;fill-opacity:1;stroke:none;stroke-width:0.298395"
       d="m 71.192626,24.70897 v -6.296359 h -6.236394 -6.236395 l 0.0021,-1.124349 c 0.005,-2.454745 0.634246,-5.090154 1.781678,-7.460833 3.443373,-7.1142567 11.811229,-10.0715765 18.958239,-6.7001118 2.565459,1.210206 5.547686,4.2495066 6.899707,7.0317518 0.92439,1.902244 1.025123,2.373102 1.118768,5.229478 0.1252,3.818624 -0.421568,6.166881 -2.015659,8.65696 -2.749919,4.295571 -7.771711,6.919817 -13.307026,6.953877 l -0.965158,0.006 z"
       id="path1227" />
    <path
       style="fill:#2d27ff;fill-opacity:1;stroke:none;stroke-width:0.0372995"
       d="M 73.920091,30.921143 C 79.447965,30.275306 83.981314,27.259264 86.230776,22.730844 87.273599,20.631522 87.62936,18.375286 87.476637,14.82961 87.397762,12.998404 87.286071,12.278037 86.94693,11.413263 86.776512,10.978722 86.339048,10.048495 86.109736,9.6330433 84.942771,7.5188379 82.907775,5.3002983 80.884864,3.9369256 80.202763,3.4772125 79.74439,3.2239952 79.048702,2.9225756 75.568872,1.414879 71.691034,1.3242844 68.207906,2.6693108 64.729448,4.0125349 61.919768,6.6754669 60.346347,10.12026 c -0.830486,1.818248 -1.34175,3.662938 -1.56328,5.640487 -0.02829,0.252588 -0.03197,0.261896 -0.03627,0.09182 -0.0026,-0.104096 0.01264,-0.416107 0.03408,-0.693351 0.282142,-3.657532 1.904424,-7.073323 4.564168,-9.6101018 1.029784,-0.9821771 2.020798,-1.6745427 3.433728,-2.3989545 2.320984,-1.1899733 3.729635,-1.5256176 6.403442,-1.5257711 1.220597,-7e-5 1.811613,0.045576 2.784102,0.2150293 4.501405,0.7843496 8.251458,3.6964019 10.422509,8.0934519 1.022968,2.0718212 1.231101,2.8435752 1.344287,4.9846152 0.134256,2.539404 -0.09446,4.507718 -0.745354,6.414583 -1.04063,3.048649 -3.449659,5.941524 -6.35989,7.637262 -2.071809,1.207205 -4.455283,1.924302 -6.610422,1.988827 l -0.556823,0.01667 z"
       id="path1229" />
    <path
       style="fill:#2d27ff;stroke:none;stroke-width:0.0876883;fill-opacity:1"
       d=""
       id="path1231"
       transform="scale(0.26458333)" />
    <path
       style="fill:#2d27ff;fill-opacity:1;stroke:none;stroke-width:0.0186497"
       d="m 58.732977,16.075513 c 0.0091,-0.555702 0.02693,-0.878712 0.07282,-1.321109 0.420138,-4.050563 2.522823,-7.8096173 5.724936,-10.234716 0.728104,-0.5514243 1.404074,-0.9623447 2.41289,-1.4667868 1.901898,-0.9510134 3.107538,-1.2923959 5.011387,-1.4189975 0.546125,-0.036317 2.09812,-0.030923 2.561378,0.0089 1.343051,0.1154547 2.448637,0.3434289 3.610056,0.7444005 0.475987,0.1643307 1.387394,0.5414925 1.444218,0.5976512 0.0083,0.00817 0.01248,0.052754 0.0093,0.099058 l -0.0058,0.084192 -0.222728,-0.1021423 c -1.566479,-0.7183764 -3.116887,-1.1301413 -4.853632,-1.289049 -0.448581,-0.041044 -1.460052,-0.05661 -1.921036,-0.029563 -2.063915,0.1210939 -3.90166,0.614369 -5.698134,1.5294564 -0.575303,0.293048 -0.90336,0.4852308 -1.438453,0.8426792 -2.37725,1.5880267 -4.162658,3.7823472 -5.325678,6.5454203 -0.750642,1.783358 -1.231341,3.739234 -1.355111,5.513671 -0.03238,0.464512 -0.03555,0.452231 -0.02642,-0.103061 z"
       id="path1233" />
  </g>
  <style
     type="text/css"
     id="style41">
	.st0{fill:#40AE48;}
	.st1{fill:#00AEEF;}
	.st2{fill:#40AD48;}
</style>
</svg>
